ply
format ascii 1.0
comment Created by Open3D
element vertex 26
property double x
property double y
property double z
property double nx
property double ny
property double nz
element face 12
property list uchar uint vertex_indices
end_header
0.5 0.5 -0.5 0 0 -1
0.5 -0.5 -0.5 0 0 -1
-0.5 -0.5 -0.5 0 0 -1
0.5 0.499999 0.5 -0 -0 1
-0.5 0.5 0.5 -0 -0 1
0.499999 -0.5 0.5 -0 -0 1
0.5 0.5 -0.5 1 0 -0
0.5 0.499999 0.5 1 0 -0
0.5 -0.5 -0.5 1 0 -0
0.5 -0.5 -0.5 -0 -1 -0
0.499999 -0.5 0.5 -0 -1 -0
-0.5 -0.5 -0.5 -0 -1 -0
-0.5 -0.5 -0.5 -1 0 -0
-0.5 -0.5 0.5 -1 0 -0
-0.5 0.5 0.5 -1 0 -0
0.5 0.499999 0.5 0 1 0
0.5 0.5 -0.5 0 1 0
-0.5 0.5 -0.5 0 1 0
-0.5 0.5 -0.5 0 0 -1
0.5 0.499999 0.5 1 -1e-06 0
0.499999 -0.5 0.5 1 -1e-06 0
0.5 -0.5 -0.5 1 -1e-06 0
-0.5 -0.5 0.5 -0 -1 0
-0.5 0.5 -0.5 -1 0 -0
-0.5 0.5 0.5 0 1 0
-0.5 -0.5 0.5 0 -0 1
3 0 1 2
3 3 4 5
3 6 7 8
3 9 10 11
3 12 13 14
3 15 16 17
3 18 0 2
3 19 20 21
3 10 22 11
3 23 12 14
3 24 15 17
3 4 25 5
